<svg width="20" height="20" viewBox="0 0 20 20" fill="none" xmlns="http://www.w3.org/2000/svg">
<path d="M18.3334 10.0001C18.3334 12.2102 17.4554 14.3298 15.8926 15.8926C14.3298 17.4554 12.2102 18.3334 10 18.3334C8.90567 18.3334 7.82204 18.1179 6.81099 17.6991C5.79994 17.2803 4.88129 16.6665 4.10746 15.8926C2.54466 14.3298 1.66669 12.2102 1.66669 10.0001C1.66669 7.78994 2.54466 5.67033 4.10746 4.10752C5.67027 2.54472 7.78988 1.66675 10 1.66675C11.0944 1.66675 12.178 1.8823 13.189 2.30109C14.2001 2.71987 15.1188 3.3337 15.8926 4.10752C16.6664 4.88135 17.2802 5.80001 17.699 6.81105C18.1178 7.8221 18.3334 8.90573 18.3334 10.0001ZM11.6667 5.83341L7.50002 10.0001L11.6667 14.1667V5.83341Z" fill="black"/>
</svg>
