<svg width="31" height="30" viewBox="0 0 31 30" fill="none" xmlns="http://www.w3.org/2000/svg">
<path d="M6.75 12.5C6.25555 12.5 5.7722 12.3534 5.36108 12.0787C4.94995 11.804 4.62952 11.4135 4.4403 10.9567C4.25108 10.4999 4.20157 9.99723 4.29804 9.51228C4.3945 9.02732 4.6326 8.58187 4.98223 8.23223C5.33187 7.8826 5.77732 7.6445 6.26228 7.54804C6.74723 7.45157 7.24989 7.50108 7.70671 7.6903C8.16353 7.87952 8.55397 8.19995 8.82868 8.61108C9.10338 9.0222 9.25 9.50555 9.25 10C9.25 10.663 8.98661 11.2989 8.51777 11.7678C8.04893 12.2366 7.41304 12.5 6.75 12.5ZM18 10C18 9.50555 17.8534 9.0222 17.5787 8.61108C17.304 8.19995 16.9135 7.87952 16.4567 7.6903C15.9999 7.50108 15.4972 7.45157 15.0123 7.54804C14.5273 7.6445 14.0819 7.8826 13.7322 8.23223C13.3826 8.58187 13.1445 9.02732 13.048 9.51228C12.9516 9.99723 13.0011 10.4999 13.1903 10.9567C13.3795 11.4135 13.7 11.804 14.1111 12.0787C14.5222 12.3534 15.0055 12.5 15.5 12.5C16.163 12.5 16.7989 12.2366 17.2678 11.7678C17.7366 11.2989 18 10.663 18 10ZM26.75 10C26.75 9.50555 26.6034 9.0222 26.3287 8.61108C26.054 8.19995 25.6635 7.87952 25.2067 7.6903C24.7499 7.50108 24.2472 7.45157 23.7623 7.54804C23.2773 7.6445 22.8319 7.8826 22.4822 8.23223C22.1326 8.58187 21.8945 9.02732 21.798 9.51228C21.7016 9.99723 21.7511 10.4999 21.9403 10.9567C22.1295 11.4135 22.45 11.804 22.8611 12.0787C23.2722 12.3534 23.7555 12.5 24.25 12.5C24.913 12.5 25.5489 12.2366 26.0178 11.7678C26.4866 11.2989 26.75 10.663 26.75 10ZM9.25 20C9.25 19.5055 9.10338 19.0222 8.82868 18.6111C8.55397 18.2 8.16353 17.8795 7.70671 17.6903C7.24989 17.5011 6.74723 17.4516 6.26228 17.548C5.77732 17.6445 5.33187 17.8826 4.98223 18.2322C4.6326 18.5819 4.3945 19.0273 4.29804 19.5123C4.20157 19.9972 4.25108 20.4999 4.4403 20.9567C4.62952 21.4135 4.94995 21.804 5.36108 22.0787C5.7722 22.3534 6.25555 22.5 6.75 22.5C7.41304 22.5 8.04893 22.2366 8.51777 21.7678C8.98661 21.2989 9.25 20.663 9.25 20ZM18 20C18 19.5055 17.8534 19.0222 17.5787 18.6111C17.304 18.2 16.9135 17.8795 16.4567 17.6903C15.9999 17.5011 15.4972 17.4516 15.0123 17.548C14.5273 17.6445 14.0819 17.8826 13.7322 18.2322C13.3826 18.5819 13.1445 19.0273 13.048 19.5123C12.9516 19.9972 13.0011 20.4999 13.1903 20.9567C13.3795 21.4135 13.7 21.804 14.1111 22.0787C14.5222 22.3534 15.0055 22.5 15.5 22.5C16.163 22.5 16.7989 22.2366 17.2678 21.7678C17.7366 21.2989 18 20.663 18 20ZM26.75 20C26.75 19.5055 26.6034 19.0222 26.3287 18.6111C26.054 18.2 25.6635 17.8795 25.2067 17.6903C24.7499 17.5011 24.2472 17.4516 23.7623 17.548C23.2773 17.6445 22.8319 17.8826 22.4822 18.2322C22.1326 18.5819 21.8945 19.0273 21.798 19.5123C21.7016 19.9972 21.7511 20.4999 21.9403 20.9567C22.1295 21.4135 22.45 21.804 22.8611 22.0787C23.2722 22.3534 23.7555 22.5 24.25 22.5C24.913 22.5 25.5489 22.2366 26.0178 21.7678C26.4866 21.2989 26.75 20.663 26.75 20Z" fill="#454545"/>
</svg>
