<svg width="20" height="20" viewBox="0 0 20 20" fill="none" xmlns="http://www.w3.org/2000/svg">
<path d="M1.66671 10.0001C1.66671 12.2102 2.54468 14.3298 4.10748 15.8926C5.67029 17.4554 7.7899 18.3334 10 18.3334C11.0944 18.3334 12.178 18.1179 13.1891 17.6991C14.2001 17.2803 15.1188 16.6665 15.8926 15.8926C17.4554 14.3298 18.3334 12.2102 18.3334 10.0001C18.3334 7.78994 17.4554 5.67033 15.8926 4.10752C14.3298 2.54472 12.2102 1.66675 10 1.66675C8.90569 1.66675 7.82206 1.8823 6.81101 2.30109C5.79997 2.71987 4.88131 3.3337 4.10748 4.10752C3.33366 4.88135 2.71983 5.80001 2.30104 6.81105C1.88226 7.8221 1.66671 8.90573 1.66671 10.0001ZM8.33337 5.83341L12.5 10.0001L8.33337 14.1667V5.83341Z" fill="black"/>
</svg>
