<svg width="73" height="40" viewBox="0 0 73 40" fill="none" xmlns="http://www.w3.org/2000/svg">
<rect x="0.5" y="0.5" width="72" height="39" fill="black"/>
<rect x="0.5" y="0.5" width="72" height="39" stroke="black"/>
<path d="M14.123 20.25C14.4963 20.25 14.823 20.2057 15.103 20.117C15.383 20.0237 15.6163 19.8953 15.803 19.732C15.9897 19.5687 16.1297 19.375 16.223 19.151C16.3163 18.9223 16.363 18.6703 16.363 18.395C16.363 17.8443 16.181 17.4243 15.817 17.135C15.453 16.8457 14.9023 16.701 14.165 16.701H12.835V20.25H14.123ZM18.869 25.5H17.406C17.1167 25.5 16.9067 25.388 16.776 25.164L14.424 21.769C14.3447 21.6523 14.2583 21.5683 14.165 21.517C14.0717 21.4657 13.9317 21.44 13.745 21.44H12.835V25.5H11.197V15.42H14.165C14.8277 15.42 15.397 15.4877 15.873 15.623C16.3537 15.7583 16.748 15.952 17.056 16.204C17.364 16.4513 17.5903 16.75 17.735 17.1C17.8843 17.45 17.959 17.8397 17.959 18.269C17.959 18.619 17.9053 18.9457 17.798 19.249C17.6953 19.5523 17.5437 19.8277 17.343 20.075C17.147 20.3223 16.9043 20.537 16.615 20.719C16.3257 20.901 15.9967 21.0433 15.628 21.146C15.8287 21.2673 16.0013 21.4377 16.146 21.657L18.869 25.5ZM26.1107 24.177L26.1037 25.5H19.8177V15.42H26.1037V16.743H21.4627V19.781H25.1727V21.062H21.4627V24.177H26.1107ZM30.7541 20.558C31.1181 20.558 31.4378 20.5113 31.7131 20.418C31.9931 20.3247 32.2241 20.194 32.4061 20.026C32.5928 19.8533 32.7328 19.6457 32.8261 19.403C32.9195 19.1603 32.9661 18.8897 32.9661 18.591C32.9661 18.297 32.9195 18.0333 32.8261 17.8C32.7375 17.5667 32.6021 17.3683 32.4201 17.205C32.2381 17.0417 32.0071 16.918 31.7271 16.834C31.4518 16.7453 31.1275 16.701 30.7541 16.701H29.2561V20.558H30.7541ZM30.7541 15.42C31.4121 15.42 31.9815 15.497 32.4621 15.651C32.9475 15.805 33.3465 16.022 33.6591 16.302C33.9765 16.5773 34.2121 16.911 34.3661 17.303C34.5201 17.6903 34.5971 18.1197 34.5971 18.591C34.5971 19.0717 34.5155 19.5127 34.3521 19.914C34.1888 20.3107 33.9461 20.6537 33.6241 20.943C33.3021 21.2277 32.9008 21.4517 32.4201 21.615C31.9441 21.7737 31.3888 21.853 30.7541 21.853H29.2561V25.5H27.6181V15.42H30.7541ZM45.368 20.46C45.368 21.2067 45.2467 21.895 45.004 22.525C44.7614 23.155 44.4184 23.6987 43.975 24.156C43.5364 24.6087 43.0067 24.9633 42.386 25.22C41.77 25.4767 41.084 25.605 40.328 25.605C39.5767 25.605 38.8907 25.4767 38.27 25.22C37.654 24.9633 37.1244 24.6087 36.681 24.156C36.2377 23.6987 35.8947 23.155 35.652 22.525C35.4094 21.895 35.288 21.2067 35.288 20.46C35.288 19.7133 35.4094 19.025 35.652 18.395C35.8947 17.765 36.2377 17.2213 36.681 16.764C37.1244 16.3067 37.654 15.9497 38.27 15.693C38.8907 15.4363 39.5767 15.308 40.328 15.308C41.084 15.308 41.77 15.4363 42.386 15.693C43.0067 15.9497 43.5364 16.3067 43.975 16.764C44.4184 17.2213 44.7614 17.765 45.004 18.395C45.2467 19.025 45.368 19.7133 45.368 20.46ZM43.695 20.46C43.695 19.8813 43.6157 19.361 43.457 18.899C43.303 18.437 43.079 18.045 42.785 17.723C42.4957 17.401 42.1434 17.1537 41.728 16.981C41.3127 16.8083 40.846 16.722 40.328 16.722C39.8147 16.722 39.3504 16.8083 38.935 16.981C38.5197 17.1537 38.165 17.401 37.871 17.723C37.577 18.045 37.3507 18.437 37.192 18.899C37.0334 19.361 36.954 19.8813 36.954 20.46C36.954 21.0433 37.0334 21.566 37.192 22.028C37.3507 22.49 37.577 22.882 37.871 23.204C38.165 23.5213 38.5197 23.7663 38.935 23.939C39.3504 24.107 39.8147 24.191 40.328 24.191C40.846 24.191 41.3127 24.107 41.728 23.939C42.1434 23.7663 42.4957 23.5213 42.785 23.204C43.079 22.882 43.303 22.49 43.457 22.028C43.6157 21.566 43.695 21.0433 43.695 20.46ZM49.8227 20.25C50.196 20.25 50.5227 20.2057 50.8027 20.117C51.0827 20.0237 51.316 19.8953 51.5027 19.732C51.6893 19.5687 51.8293 19.375 51.9227 19.151C52.016 18.9223 52.0627 18.6703 52.0627 18.395C52.0627 17.8443 51.8807 17.4243 51.5167 17.135C51.1527 16.8457 50.602 16.701 49.8647 16.701H48.5347V20.25H49.8227ZM54.5687 25.5H53.1057C52.8163 25.5 52.6063 25.388 52.4757 25.164L50.1237 21.769C50.0443 21.6523 49.958 21.5683 49.8647 21.517C49.7713 21.4657 49.6313 21.44 49.4447 21.44H48.5347V25.5H46.8967V15.42H49.8647C50.5273 15.42 51.0967 15.4877 51.5727 15.623C52.0533 15.7583 52.4477 15.952 52.7557 16.204C53.0637 16.4513 53.29 16.75 53.4347 17.1C53.584 17.45 53.6587 17.8397 53.6587 18.269C53.6587 18.619 53.605 18.9457 53.4977 19.249C53.395 19.5523 53.2433 19.8277 53.0427 20.075C52.8467 20.3223 52.604 20.537 52.3147 20.719C52.0253 20.901 51.6963 21.0433 51.3277 21.146C51.5283 21.2673 51.701 21.4377 51.8457 21.657L54.5687 25.5ZM62.1536 16.785H59.0106V25.5H57.3796V16.785H54.2296V15.42H62.1536V16.785Z" fill="white"/>
</svg>
