<svg width="18" height="18" viewBox="0 0 18 18" fill="none" xmlns="http://www.w3.org/2000/svg">
<path d="M17.3334 9.00008C17.3334 11.2102 16.4554 13.3298 14.8926 14.8926C13.3298 16.4554 11.2102 17.3334 9.00002 17.3334C7.90567 17.3334 6.82204 17.1179 5.81099 16.6991C4.79994 16.2803 3.88129 15.6665 3.10746 14.8926C1.54466 13.3298 0.666687 11.2102 0.666687 9.00008C0.666687 6.78994 1.54466 4.67033 3.10746 3.10752C4.67027 1.54472 6.78988 0.666748 9.00002 0.666748C10.0944 0.666748 11.178 0.882296 12.189 1.30109C13.2001 1.71987 14.1188 2.3337 14.8926 3.10752C15.6664 3.88135 16.2802 4.80001 16.699 5.81105C17.1178 6.8221 17.3334 7.90573 17.3334 9.00008ZM10.6667 4.83341L6.50002 9.00008L10.6667 13.1667V4.83341Z" fill="black"/>
</svg>
